<svg version="1.2" xmlns="http://www.w3.org/2000/svg" viewBox="0 0 293 363" width="293" height="363">
	<title>spider unit</title>
	<style>
		.s0 { fill: #ffffff;stroke: #000000;stroke-width: 15 } 
		.s1 { fill: #ff8800;stroke: #000000;stroke-width: 15 } 
		.s2 { opacity: .4;fill: none;stroke: #ffffff;stroke-linecap: round;stroke-width: 6;stroke-dasharray: 0,12 } 
		.s3 { opacity: .4;fill: none;stroke: #ffffff;stroke-linecap: round;stroke-width: 10;stroke-dasharray: 0,20 } 
		.s4 { opacity: .4;fill: #ffffff } 
		.s5 { opacity: .4;fill: none;stroke: #ffffff;stroke-width: 8 } 
		.s6 { fill: none;stroke: #000000;stroke-width: 15 } 
		.s7 { opacity: .3;fill: #000000 } 
	</style>
	<path id="body" class="s0" d="m146.5 355c-76.6 0-138.5-66.6-138.5-149 0-82.4 61.9-149 138.5-149 76.6 0 138.5 66.6 138.5 149 0 82.4-61.9 149-138.5 149z"/>
	<path id="tail" class="s1" d="m147.5 306c-36.2 0-49.4-70.5-65.5-149-7.8-38.3-22.4-51.9-4.6-79.2 4.1-6.3 9.6-2.1 16.8-7.4 32.2-23.7 31.3-62.4 53.3-62.4 21.7 0 23 34.2 52.8 60.6 6.1 5.4 10.3 2.8 13.6 9.3 16.2 30.8 5.9 40.9-0.9 79.1-13.9 78.6-29.3 149-65.5 149zm65.5-391m-1-34"/>
	<path id="Spine tail" class="s2" d="m148 23c0 0 1.4 194-0.6 194m-496.4-153m97 77"/>
	<path id="body copy" class="s1" d="m146.5 355c-76.6 0-138.5-66.6-138.5-149 0-82.4 61.9-149 138.5-149 76.6 0 138.5 66.6 138.5 149 0 82.4-61.9 149-138.5 149z"/>
	<path id="Spine" class="s3" d="m148 59c0 0 1.4 194-0.6 194m-496.4-153"/>
	<path id="Nose highlight" class="s4" d="m145.5 347c-40.6 0-73.5-17-73.5-38 0-21 32.9-38 73.5-38 40.6 0 73.5 17 73.5 38 0 21-32.9 38-73.5 38z"/>
	<g id="Eyes">
		<path id="Shape 2" class="s0" d="m260.3 289.2c-14.8 18.9-54.1 22-66.3 12.5-12.2-9.6-10-32.6 4.8-51.5 14.8-19 36.6-26.6 48.8-17 12.2 9.5 27.6 37 12.7 56zm-273.3-8.2"/>
		<path id="Shape 2 copy 2" class="s0" d="m45.9 233.2c12.2-9.6 34-2 48.9 17 14.8 18.9 16.9 41.9 4.7 51.5-12.2 9.5-51.5 6.4-66.3-12.5-14.8-19 0.5-46.5 12.7-56z"/>
	</g>
	<path id="Shape 9" class="s5" d="m13 215c5.3-13.2 13.9-21.8 23.1-27.5 18.8-11.4 39.9-10.5 39.9-10.5"/>
	<path id="Shape 9 copy" class="s5" d="m12 188c5.3-13.2 13.9-21.8 23.1-27.5 18.8-11.4 39.9-10.5 39.9-10.5"/>
	<path id="Shape 9 copy 2" class="s5" d="m18 159c5.3-13.2 13.9-21.8 23.1-27.5 18.8-11.4 39.9-10.5 39.9-10.5"/>
	<path id="Shape 9 copy 3" class="s5" d="m216 177c0 0 21.1-0.9 39.9 10.5 9.2 5.7 17.8 14.3 23.1 27.5"/>
	<path id="Shape 9 copy 4" class="s5" d="m217 150c0 0 21.1-0.9 39.9 10.5 9.2 5.7 17.8 14.3 23.1 27.5"/>
	<path id="Shape 9 copy 5" class="s5" d="m211 121c0 0 21.1-0.9 39.9 10.5 9.2 5.7 17.8 14.3 23.1 27.5"/>
	<path id="body outline" class="s6" d="m146.5 355c-76.6 0-138.5-66.6-138.5-149 0-82.4 61.9-149 138.5-149 76.6 0 138.5 66.6 138.5 149 0 82.4-61.9 149-138.5 149z"/>
	<path id="body shadow" fill-rule="evenodd" class="s7" d="m285 206c0 70.5-45.3 129.4-106.3 145 37.6-31.6 62.3-85.8 62.3-147.5 0-57.1-21.2-107.9-54.2-140.1 56.9 18.5 98.2 75.3 98.2 142.6z"/>
	<path id="tail shadow" fill-rule="evenodd" class="s7" d="m188.8 50.2c3.2 3.1 6.8 5.7 9.8 7.8q1.2 2.1 2.3 4.1c-3.3-1.7-8.2-4.4-13.8-5.5-9-1.6-17.6-1-25.6 0.6-6.6-17.5-15.3-33.3-25.8-47 3.4-3.2 6-5.3 9.6-6 9.7 5.5 18.7 12.2 26.8 20 3.5 7.9 7.6 17.1 16.7 26z"/>
</svg>